<?xml version="1.0" standalone="no"?>
<!DOCTYPE svg PUBLIC "-//W3C//DTD SVG 20010904//EN"
 "http://www.w3.org/TR/2001/REC-SVG-20010904/DTD/svg10.dtd">
<svg version="1.0" xmlns="http://www.w3.org/2000/svg"
 width="563.000000pt" height="831.000000pt" viewBox="0 0 563.000000 831.000000"
 preserveAspectRatio="xMidYMid meet">

<g transform="translate(0.000000,831.000000) scale(0.100000,-0.100000)"
fill="#000000" stroke="none">
<path d="M0 6240 c0 -1833 2 -2070 15 -2070 8 0 15 5 15 11 0 8 15 10 46 6 26
-2 41 -1 35 3 -20 12 112 20 274 16 83 -2 139 0 125 4 l-25 7 25 4 c42 8 -94
13 -295 11 -144 -1 -185 1 -168 9 22 12 38 49 24 59 -4 3 -6 16 -3 30 6 33 6
39 -7 995 -17 1300 -18 2269 -3 2470 8 94 14 180 14 193 0 13 6 35 14 50 10
20 11 28 1 34 -9 5 -8 12 5 25 11 11 21 14 27 8 23 -24 53 -185 58 -315 4 -88
10 -145 20 -163 14 -29 41 -258 50 -432 3 -61 11 -103 24 -132 13 -26 24 -80
29 -137 5 -53 15 -104 22 -115 10 -17 7 -26 -28 -66 -61 -72 -105 -137 -102
-150 3 -10 97 -99 148 -140 14 -11 35 -36 47 -55 12 -19 46 -58 76 -86 l53
-51 12 -279 c7 -154 14 -378 17 -499 3 -121 10 -339 15 -485 18 -513 25 -735
24 -761 -2 -29 -9 -27 151 -45 28 -3 64 -11 80 -19 17 -7 47 -20 68 -29 20 -9
37 -20 37 -26 0 -5 -11 -29 -24 -52 -22 -39 -67 -77 -98 -82 -7 -1 -23 -8 -36
-14 -12 -7 -27 -10 -33 -7 -5 4 -17 1 -25 -6 -9 -7 -42 -12 -77 -12 -34 0 -67
-4 -73 -8 -6 -5 -19 -3 -30 6 -19 14 -19 14 0 15 35 0 11 9 -40 15 -27 3 -64
8 -82 11 -43 7 -142 -5 -142 -18 0 -6 17 -7 43 -3 26 4 37 3 29 -3 -7 -5 -14
-19 -15 -30 -1 -15 -8 -22 -22 -21 -11 0 -14 3 -8 6 10 3 10 8 -1 19 -8 8 -19
14 -25 14 -6 0 -11 7 -11 16 0 14 -14 15 -113 10 -61 -2 -118 -6 -124 -7 -21
-4 -15 -25 7 -26 11 -1 20 2 20 6 0 5 10 11 23 14 18 5 15 1 -13 -23 -19 -16
-38 -30 -42 -30 -5 0 -8 -20 -8 -45 l0 -45 48 -1 c145 -3 227 3 238 17 14 18
25 18 18 1 -3 -10 10 -12 58 -11 35 1 51 0 36 -3 -28 -4 -40 -23 -15 -23 27 0
57 13 56 24 -1 6 -1 20 0 31 1 18 3 18 14 4 7 -9 18 -18 25 -20 11 -4 9 -10
-6 -29 l-20 -25 -226 0 -226 0 0 -557 c1 -339 4 -558 10 -558 5 0 7 -7 4 -15
-4 -9 0 -15 9 -15 8 0 20 7 27 15 9 11 9 15 1 15 -7 0 -10 4 -6 9 3 5 25 9 50
8 35 -2 47 -7 56 -25 16 -28 6 -39 -53 -57 -32 -9 -49 -10 -56 -3 -6 6 -18 8
-26 5 -14 -6 -16 -135 -16 -1307 l0 -1300 2815 0 2815 0 0 4155 0 4155 -1284
0 -1283 0 -7 -40 c-7 -44 -42 -76 -74 -66 -26 8 -46 49 -40 80 l5 26 -203 0
-204 0 0 -39 c0 -22 -5 -43 -11 -46 -17 -11 -20 0 -10 29 22 56 24 56 -279 56
l-278 0 16 -31 c9 -17 23 -40 29 -52 7 -12 13 -30 13 -39 0 -9 4 -19 10 -23 5
-3 7 -12 4 -20 -3 -7 4 -18 15 -25 12 -6 21 -17 21 -25 0 -7 11 -27 25 -43 13
-16 22 -32 19 -35 -4 -3 3 -18 15 -33 11 -15 21 -32 21 -39 0 -6 9 -22 20 -35
12 -14 20 -37 20 -61 0 -24 8 -47 23 -66 13 -15 29 -48 36 -73 21 -71 41 -110
66 -132 15 -13 27 -37 31 -64 3 -24 10 -44 15 -44 5 0 13 -8 16 -17 4 -10 13
-24 20 -31 7 -7 13 -21 13 -30 0 -9 17 -39 38 -67 21 -27 36 -58 34 -67 -2
-12 5 -19 22 -24 14 -3 28 -16 32 -27 4 -12 14 -27 23 -33 13 -10 14 -16 2
-37 -11 -21 -11 -28 2 -48 8 -13 18 -37 21 -53 5 -22 11 -27 26 -23 16 4 20 0
20 -19 0 -14 6 -27 14 -30 8 -3 18 -20 21 -37 4 -18 14 -43 22 -56 9 -13 19
-36 23 -50 4 -17 13 -26 26 -26 14 0 20 -8 22 -30 6 -71 13 -94 26 -89 20 8
23 -1 31 -113 4 -72 3 -103 -4 -103 -6 0 -11 5 -11 12 0 16 -48 116 -60 123
-6 3 -10 13 -10 22 0 28 -39 73 -58 66 -15 -6 -15 -5 -4 10 12 14 12 19 -2 32
-9 9 -16 20 -16 24 0 4 -18 16 -40 27 -32 15 -39 24 -37 43 1 18 -5 26 -27 34
-21 7 -30 6 -37 -4 -7 -11 -9 -11 -9 -1 0 7 7 20 15 28 21 21 19 41 -5 49 -11
3 -20 14 -20 23 0 9 -7 26 -15 36 -14 19 -15 19 -15 -6 0 -27 -16 -46 -28 -33
-4 3 -7 24 -7 46 0 41 -19 54 -30 20 -9 -31 -9 -95 1 -98 5 -2 8 -22 6 -46 -4
-40 -3 -41 12 -22 15 20 15 19 16 -5 0 -15 -5 -31 -12 -38 -9 -9 -9 -12 0 -12
13 0 12 -96 -1 -130 -3 -8 -8 -22 -10 -30 -4 -9 -6 -6 -6 8 -1 27 -21 30 -21
3 0 -11 -5 -23 -11 -27 -8 -4 -9 0 -4 15 10 34 -3 61 -31 61 -17 0 -24 -6 -24
-19 0 -11 -4 -22 -10 -26 -5 -3 -6 -13 -3 -23 4 -9 -5 -3 -20 14 -33 39 -34
51 -5 60 l21 6 -23 18 c-23 17 -24 26 -5 101 5 18 1 31 -11 43 -17 17 -18 42
-11 146 2 14 -3 31 -10 38 -7 7 -13 30 -13 51 0 21 -5 52 -11 70 -9 26 -9 34
4 44 8 7 17 26 21 42 6 27 5 28 -7 13 -8 -10 -22 -18 -31 -18 -10 0 -27 -5
-38 -11 -25 -13 -88 -75 -88 -86 0 -15 -50 -66 -58 -59 -4 4 1 14 11 21 22 16
58 80 50 89 -9 9 26 56 42 56 22 0 56 51 53 79 -2 20 -9 27 -31 29 -28 3 -29
2 -26 -37 4 -46 -13 -73 -33 -53 -16 16 -28 15 -28 -2 0 -8 -5 -18 -11 -21 -7
-5 -8 4 -4 28 5 26 3 37 -9 44 -12 6 -13 16 -6 47 5 25 5 47 -1 58 -11 21 -45
24 -52 6 -4 -10 -8 -9 -16 2 -15 21 -14 24 13 53 15 16 20 30 15 39 -5 8 -9 8
-9 2 0 -6 -13 -14 -30 -17 -21 -5 -28 -11 -24 -21 3 -8 -4 -25 -16 -38 -18
-19 -22 -20 -30 -8 -5 8 -10 26 -10 40 0 20 2 22 10 10 8 -13 12 -12 31 6 23
24 18 47 -9 42 -23 -3 -42 10 -42 29 0 12 7 14 28 10 23 -5 30 -1 39 21 6 15
10 45 8 67 -2 22 -4 51 -4 64 -1 14 -6 21 -13 18 -10 -3 -12 10 -10 53 3 52 1
60 -18 70 -18 10 -21 18 -16 42 5 26 3 30 -13 25 -13 -3 -21 1 -24 14 -3 11
-14 19 -27 19 -21 0 -22 -4 -17 -39 3 -22 16 -55 31 -73 25 -33 25 -34 5 -46
-18 -12 -20 -21 -15 -87 3 -41 8 -80 11 -85 4 -6 -1 -22 -9 -35 -9 -14 -12
-25 -6 -25 5 0 10 -22 10 -49 0 -31 5 -53 15 -61 17 -14 20 -66 5 -75 -12 -8
-12 -16 -1 -34 8 -12 12 -12 25 -2 24 20 45 10 35 -16 -6 -17 -16 -23 -38 -23
-26 0 -41 -14 -41 -41 0 -10 44 -6 73 6 27 11 31 0 13 -36 -9 -18 -16 -38 -16
-45 0 -8 -9 -19 -20 -26 -25 -16 -26 -28 -2 -28 10 0 26 -6 36 -13 16 -12 16
-15 2 -42 -9 -18 -12 -31 -6 -33 6 -2 10 -12 10 -22 0 -10 3 -20 8 -22 12 -5
52 -66 52 -79 0 -17 -44 30 -64 68 -9 18 -25 33 -37 35 -14 2 -30 18 -42 41
-18 35 -23 38 -48 33 -16 -3 -30 -2 -30 2 -1 4 -3 27 -5 52 -9 127 -25 292
-43 435 -38 299 -41 330 -61 508 -11 98 -20 180 -20 183 0 2 -53 4 -119 4
l-119 0 5 -47 c3 -27 9 -63 15 -81 12 -38 2 -124 -19 -169 -14 -29 -13 -33 6
-52 12 -12 21 -27 21 -35 0 -8 14 -28 30 -46 33 -36 37 -52 16 -69 -11 -10
-17 -7 -30 11 -9 12 -16 29 -16 37 0 21 -78 121 -95 121 -46 0 -65 16 -65 53
0 24 -8 40 -31 60 -17 15 -32 27 -34 27 -2 0 -9 -16 -15 -35 -10 -29 -16 -35
-40 -35 -22 0 -33 -7 -43 -26 -8 -15 -17 -22 -20 -17 -6 10 13 84 53 208 31
93 30 95 -39 95 l-59 0 -5 -52 c-2 -29 -12 -73 -21 -97 -9 -24 -15 -48 -13
-54 5 -17 39 45 42 79 2 19 11 41 20 50 15 15 16 12 10 -37 -4 -30 -11 -70
-17 -89 -14 -47 -64 -140 -89 -166 -12 -12 -25 -42 -30 -66 -5 -23 -16 -57
-24 -74 -19 -40 -45 -164 -45 -212 0 -21 -6 -47 -14 -58 -8 -11 -16 -31 -17
-44 -4 -23 0 -25 50 -32 34 -5 58 -4 66 2 7 6 18 36 24 68 12 61 36 106 52 97
11 -7 1 -115 -12 -129 -5 -6 -9 -18 -9 -28 0 -22 -25 -35 -73 -36 -45 -2 -111
-18 -149 -38 -55 -29 -25 -95 52 -115 46 -12 48 -14 47 -46 -1 -19 4 -37 9
-41 6 -4 14 -22 17 -41 6 -27 3 -37 -13 -48 -11 -8 -20 -25 -20 -39 0 -14 -11
-35 -25 -48 -27 -25 -31 -41 -15 -51 5 -3 17 9 26 28 9 19 28 41 43 50 14 8
43 31 63 51 40 39 55 30 31 -18 l-15 -29 33 7 c19 4 63 10 99 12 l65 5 -55
-36 c-121 -80 -207 -191 -260 -335 -31 -87 -49 -122 -59 -116 -5 3 -6 17 -3
31 5 31 -5 32 -41 2 -25 -20 -28 -29 -31 -105 -4 -81 -3 -84 30 -130 40 -55
116 -203 109 -210 -3 -3 -14 3 -24 14 -124 123 -132 130 -145 112 -10 -14 -11
-30 -1 -82 15 -77 6 -92 -36 -70 -38 19 -43 45 -24 129 27 117 29 159 11 187
-30 46 -20 139 24 213 10 17 21 52 25 78 5 41 14 56 57 97 42 40 49 53 43 72
-3 13 -8 31 -9 40 -3 26 -12 31 -32 20 -11 -6 -18 -22 -19 -38 0 -15 -6 -29
-14 -32 -10 -3 -13 2 -9 23 5 26 4 27 -29 22 -45 -8 -50 -13 -35 -37 18 -30
15 -50 -9 -50 -24 0 -23 9 5 128 8 37 11 74 7 90 -4 15 -5 67 -2 115 6 86 5
89 -21 120 -15 18 -27 37 -28 43 0 6 18 34 40 62 22 27 40 55 40 62 0 7 23 55
51 106 30 57 64 140 85 210 18 64 41 131 50 148 9 17 24 77 34 134 11 57 26
127 34 156 9 30 16 57 16 60 0 3 -209 6 -465 6 l-465 0 0 -2070z m2353 2017
c17 -33 14 -47 -8 -47 -18 0 -22 7 -30 53 -6 31 -5 36 8 31 8 -3 22 -20 30
-37z m40 -83 c17 -6 24 -24 8 -24 -4 0 -6 -11 -4 -24 4 -17 10 -23 20 -19 11
4 14 0 11 -13 -2 -12 -13 -19 -29 -21 -24 -1 -26 1 -23 38 2 30 -2 41 -17 50
-20 10 -16 34 4 25 7 -4 20 -9 30 -12z m677 -14 c0 -5 -5 -10 -11 -10 -5 0 -7
5 -4 10 3 6 8 10 11 10 2 0 4 -4 4 -10z m-514 -104 c4 -11 14 -32 24 -46 10
-14 29 -59 43 -101 15 -41 33 -89 42 -105 8 -16 15 -34 15 -40 0 -7 7 -24 15
-40 13 -25 13 -29 0 -37 -8 -4 -15 -17 -15 -27 0 -20 42 -143 67 -197 9 -19
13 -43 9 -58 -5 -18 0 -35 14 -55 20 -29 21 -31 4 -67 -10 -21 -18 -39 -19
-41 -1 -1 -10 0 -19 4 -17 7 -22 49 -6 59 8 5 -17 84 -58 185 -6 14 -18 50
-26 80 -9 30 -30 98 -46 150 -16 52 -37 131 -45 175 -9 44 -23 105 -31 136
-19 76 -19 86 6 64 11 -10 22 -27 26 -39z m-140 -7 c5 1 10 -7 11 -16 1 -10 5
-31 9 -47 5 -22 4 -28 -7 -24 -8 2 -15 21 -17 41 -2 20 -7 37 -13 37 -5 0 -9
8 -9 18 0 13 2 14 9 4 4 -8 12 -13 17 -13z m44 0 c0 -11 -4 -18 -10 -14 -5 3
-7 12 -3 20 7 21 13 19 13 -6z m410 -40 c0 -5 6 -7 13 -3 6 5 -3 -7 -21 -25
-18 -19 -36 -30 -40 -27 -3 4 -2 10 3 14 6 4 10 13 11 20 2 28 5 32 19 32 8 0
15 -5 15 -11z m-393 -50 c1 -24 0 -26 -4 -9 -3 14 -10 31 -16 39 -10 11 -9 13
3 9 9 -3 16 -18 17 -39z m-1406 11 c19 0 26 -24 10 -34 -9 -6 -42 36 -40 51 0
4 3 2 6 -4 2 -7 13 -13 24 -13z m1824 -72 c-7 -133 -19 -228 -29 -228 -6 0 -3
-5 7 -11 10 -6 17 -22 17 -39 0 -17 6 -30 15 -32 22 -5 -3 -47 -44 -75 -26
-18 -37 -20 -47 -12 -26 21 -16 48 27 69 50 26 51 56 1 54 -32 -2 -44 10 -19
19 9 3 7 9 -6 24 -14 17 -17 33 -12 97 5 81 10 100 25 91 5 -3 11 -1 15 5 3 6
-1 13 -9 16 -24 9 -19 33 9 40 14 3 25 10 25 15 0 5 6 9 13 9 10 0 13 -12 12
-42z m-1898 -8 c-9 -16 -9 -24 1 -40 18 -30 15 -44 -17 -68 -36 -27 -42 -15
-23 47 22 73 31 93 42 86 6 -4 5 -13 -3 -25z m1511 -10 c-2 -9 3 -24 9 -32 7
-8 16 -30 19 -49 l7 -34 -22 27 c-11 14 -21 36 -21 47 0 12 -4 21 -10 21 -5 0
-10 14 -10 31 0 27 2 30 15 19 9 -7 14 -21 13 -30z m448 -8 c5 -4 10 -17 10
-29 0 -22 -1 -22 -18 -3 -27 29 -22 53 8 32z m-1776 -27 c0 -8 -4 -17 -10 -20
-6 -4 -10 5 -10 20 0 15 4 24 10 20 6 -3 10 -12 10 -20z m1783 -49 c6 -15 -1
-26 -15 -26 -4 0 -8 9 -8 20 0 23 15 27 23 6z m-1445 -48 c7 -7 12 -23 12 -37
-1 -23 -2 -24 -11 -8 -6 10 -22 22 -35 27 -13 5 -24 14 -24 20 0 14 43 13 58
-2z m1457 -84 c-7 -9 -12 -9 -17 0 -12 18 -9 64 5 69 15 5 26 -54 12 -69z m53
-66 c2 -22 -3 -39 -12 -48 -21 -16 -20 -27 2 -32 10 -3 18 -15 19 -26 2 -25
-7 -28 -25 -10 -13 13 -13 16 -17 -67 -2 -37 -8 -53 -24 -63 -11 -8 -21 -22
-21 -30 0 -12 -3 -13 -11 -5 -9 9 -16 7 -28 -7 -20 -22 -93 -36 -85 -15 3 7 1
16 -5 20 -19 11 -12 34 8 28 10 -3 22 0 25 6 5 7 15 7 32 1 24 -10 25 -9 10
12 -37 52 -5 144 45 131 23 -6 23 -7 4 48 -16 45 -10 59 26 59 9 0 19 9 22 21
9 32 32 17 35 -23z m-1866 -40 c-6 -6 -18 -8 -27 -4 -15 5 -14 9 7 31 22 24
23 24 26 3 2 -11 -1 -25 -6 -30z m1706 -77 c10 -6 10 -10 -3 -21 -8 -7 -15
-28 -15 -46 0 -24 -5 -34 -15 -34 -9 0 -15 9 -15 24 0 13 -3 31 -6 39 -3 8 2
22 11 31 19 18 25 19 43 7z m291 -61 c-5 -4 -6 -21 -3 -39 5 -23 9 -29 15 -19
5 7 9 9 9 5 0 -4 -7 -18 -15 -31 -15 -22 -14 -24 5 -29 12 -3 24 -15 27 -26 3
-12 12 -21 19 -21 19 0 29 -27 16 -43 -14 -16 -8 -115 7 -130 6 -6 11 -21 11
-34 0 -13 11 -51 25 -85 26 -64 29 -76 18 -65 -3 4 -12 2 -19 -4 -10 -8 -15
-8 -18 2 -31 106 -51 156 -82 209 -21 34 -39 77 -40 94 -2 27 -1 29 10 13 7
-9 16 -17 20 -17 10 0 7 48 -4 55 -5 3 -10 16 -10 28 0 12 -7 31 -15 41 -20
26 -19 71 2 102 12 19 18 22 24 12 4 -7 4 -15 -2 -18z m-129 -104 c0 -6 -13
-24 -30 -39 -16 -16 -30 -34 -31 -40 0 -7 -6 4 -13 23 -11 31 -11 36 6 50 23
18 68 22 68 6z m-1975 -46 c9 -14 -13 -40 -34 -40 -10 0 -17 9 -17 25 -2 20 3
25 21 25 13 0 27 -5 30 -10z m1855 -6 c0 -8 -5 -12 -10 -9 -6 4 -8 11 -5 16 9
14 15 11 15 -7z m120 -49 c-9 -10 -7 -16 7 -24 14 -8 15 -12 6 -22 -8 -8 -10
-28 -6 -56 3 -23 3 -43 0 -43 -3 0 -18 12 -33 27 -39 39 -38 92 1 133 24 25
31 28 33 15 2 -9 -1 -22 -8 -30z m-176 3 c-1 -18 2 -39 8 -45 7 -9 6 -15 -6
-19 -9 -3 -16 -12 -16 -20 0 -17 5 -17 32 -3 28 15 43 -8 22 -32 -12 -13 -15
-38 -13 -101 2 -79 1 -84 -22 -95 -24 -13 -15 -17 24 -14 21 3 34 -26 18 -42
-8 -8 -14 -8 -23 1 -7 7 -20 12 -30 12 -13 0 -18 8 -18 30 0 19 -6 33 -16 37
-8 3 -13 12 -10 19 3 8 -1 14 -10 14 -12 0 -15 13 -13 70 1 44 -3 75 -11 85
-7 8 -14 37 -17 63 l-3 47 27 -30 c16 -16 27 -33 25 -38 -1 -5 3 -7 10 -5 20
7 22 40 4 50 -21 12 -4 48 22 48 14 0 18 -7 16 -32z m132 -156 c-23 -23 -33
-6 -10 19 12 13 20 16 22 9 3 -7 -3 -19 -12 -28z m-318 0 c6 -18 -15 -14 -22
4 -4 10 -1 14 6 12 6 -2 14 -10 16 -16z m9 -44 c-3 -8 -6 -5 -6 6 -1 11 2 17
5 13 3 -3 4 -12 1 -19z m303 -18 c0 -5 -4 -10 -10 -10 -5 0 -10 5 -10 10 0 6
5 10 10 10 6 0 10 -4 10 -10z m-2523 -41 c-3 -12 0 -19 9 -19 23 0 10 -36 -23
-64 -17 -14 -34 -26 -37 -26 -11 0 -1 23 17 42 15 16 16 22 5 35 -10 13 -10
17 0 20 6 3 12 14 12 24 0 12 4 17 11 13 6 -3 9 -15 6 -25z m2218 21 c-3 -5
-11 -10 -16 -10 -6 0 -7 5 -4 10 3 6 11 10 16 10 6 0 7 -4 4 -10z m-459 -195
c-7 -38 -26 -48 -26 -14 0 24 19 63 27 55 3 -3 2 -21 -1 -41z m-1004 -38 c18
-18 39 -45 45 -60 7 -15 20 -30 28 -33 8 -4 15 -14 15 -24 0 -9 9 -25 20 -35
11 -10 20 -24 20 -31 0 -7 10 -14 23 -16 18 -2 22 -10 24 -43 1 -22 2 -46 2
-52 1 -7 7 -13 14 -13 19 0 94 -73 147 -143 63 -81 71 -98 58 -115 -8 -9 -8
-16 -2 -20 6 -4 20 -27 32 -52 19 -39 20 -46 7 -60 -8 -9 -15 -22 -15 -29 0
-6 -6 -14 -14 -17 -17 -6 -10 -44 12 -61 8 -7 12 -18 9 -26 -3 -8 1 -27 9 -42
19 -37 18 -49 -9 -93 -23 -35 -34 -68 -43 -122 -2 -14 -7 -36 -10 -49 -4 -17
-1 -22 9 -18 10 4 13 -1 12 -16 -1 -12 -3 -35 -4 -52 -2 -27 -3 -28 -11 -9
-19 49 -58 42 -83 -14 -22 -50 -21 -59 3 -67 13 -4 31 1 49 14 40 29 51 26 51
-11 0 -25 -3 -29 -10 -18 -6 10 -10 11 -10 3 0 -7 -7 -13 -15 -13 -8 0 -15 5
-15 10 0 6 -3 10 -7 10 -5 0 -9 -23 -11 -50 -2 -30 1 -50 7 -50 6 0 11 -6 11
-13 0 -7 11 -29 25 -49 l25 -37 -21 -67 c-21 -69 -19 -106 7 -135 13 -15 13
-19 -2 -33 -15 -15 -15 -19 1 -52 21 -44 33 -184 16 -184 -21 0 -11 -20 12
-21 17 -1 15 -3 -10 -10 -48 -14 -49 -28 -1 -23 l43 4 -47 -21 c-47 -21 -62
-39 -33 -39 8 0 15 -7 15 -15 0 -8 5 -15 12 -15 6 0 4 -6 -6 -13 -16 -12 -16
-14 8 -40 19 -20 26 -40 28 -77 2 -28 6 -50 10 -50 4 0 5 -7 2 -15 -4 -10 0
-15 12 -15 14 0 15 -3 6 -12 -8 -8 -9 -15 -1 -25 9 -10 3 -21 -26 -46 l-37
-33 36 4 c34 4 36 2 37 -24 1 -16 0 -33 -1 -39 -1 -5 -2 -21 -3 -35 -2 -18
-12 -30 -36 -42 -40 -20 -56 -12 -66 33 -8 35 -18 37 -32 7 -10 -22 -11 -21
-27 16 -29 69 -29 82 -4 105 12 12 33 24 45 27 21 6 23 12 23 73 0 42 -7 85
-20 119 -15 39 -21 84 -24 175 -4 122 -25 227 -61 311 -9 22 -19 66 -21 99 -5
60 -26 117 -44 117 -22 0 -68 -27 -97 -58 -31 -34 -31 -35 -32 -141 -1 -66 -7
-128 -17 -160 -10 -34 -12 -57 -6 -64 21 -26 -9 -202 -37 -224 -9 -7 -12 -13
-8 -13 5 0 1 -7 -7 -16 -19 -19 -21 -51 -3 -74 6 -9 -2 0 -20 19 -18 20 -37
36 -42 36 -32 0 -49 74 -60 260 -6 89 -13 132 -29 165 -27 59 -51 165 -44 193
3 12 25 54 49 92 63 101 171 317 184 367 20 80 21 104 4 144 -10 21 -21 63
-26 92 -8 56 -26 91 -153 297 -106 172 -148 260 -149 315 -1 62 39 143 106
217 93 101 143 116 199 60z m1828 -139 c34 -37 22 -98 -21 -98 -25 0 -69 46
-69 73 0 49 54 64 90 25z m-690 -138 c47 -6 195 -33 330 -60 135 -26 286 -51
335 -55 89 -6 305 -30 378 -41 45 -7 52 -33 7 -29 -17 1 -33 5 -36 8 -9 8 -37
-3 -51 -21 -10 -13 -6 -18 30 -37 29 -14 55 -20 79 -17 28 3 39 -1 51 -19 14
-20 17 -20 23 -6 8 21 33 22 60 2 12 -8 24 -11 28 -8 6 6 56 -35 56 -46 0 -12
-60 -32 -78 -27 -11 4 -24 0 -32 -9 -13 -15 -35 -11 -25 6 4 5 1 17 -4 26 -9
16 -10 16 -11 -3 0 -12 -9 -33 -20 -47 -11 -14 -20 -30 -20 -35 0 -6 -5 -14
-12 -18 -8 -5 -9 0 -5 16 3 13 0 28 -9 37 -8 8 -14 10 -14 4 0 -5 -10 -11 -22
-13 -18 -2 -24 -11 -26 -35 -2 -24 -8 -33 -21 -33 -10 0 -26 -9 -35 -19 -15
-16 -38 -20 -156 -26 -98 -5 -140 -11 -144 -20 -4 -11 -8 -43 -21 -183 -1 -12
-5 -25 -8 -29 -4 -3 -7 -20 -7 -37 0 -43 -11 -77 -21 -70 -18 11 0 -319 18
-337 5 -5 7 37 5 98 -3 59 1 136 8 173 6 36 13 83 15 105 2 22 4 42 5 45 5 12
18 -48 19 -85 1 -30 4 -36 11 -25 8 13 10 12 10 -2 0 -10 6 -18 13 -18 24 -1
67 -49 67 -75 0 -14 -4 -25 -10 -25 -5 0 -10 -7 -10 -15 0 -8 5 -15 10 -15 12
0 13 -40 1 -59 -11 -17 1 -49 43 -111 22 -34 30 -57 31 -95 1 -28 4 -56 8 -62
8 -13 20 -81 19 -105 0 -10 4 -18 10 -18 26 0 300 200 418 305 25 23 70 60
100 83 73 55 105 84 235 210 112 109 271 261 403 386 l73 69 25 -26 c32 -35
34 -102 4 -112 -12 -4 -30 -16 -41 -28 -20 -22 -21 -22 -35 -3 -15 21 -16 19
-18 -28 -1 -24 -8 -31 -46 -45 -32 -12 -46 -23 -48 -39 -2 -12 -7 -22 -11 -22
-4 0 -21 -13 -37 -30 -16 -16 -33 -30 -38 -30 -11 0 -64 -61 -71 -82 -4 -9
-21 -26 -40 -38 -18 -11 -36 -27 -39 -35 -3 -8 -10 -15 -16 -15 -13 0 -49 -36
-73 -72 -9 -16 -24 -28 -32 -28 -8 0 -15 -4 -15 -10 0 -5 -6 -10 -14 -10 -8 0
-17 -7 -20 -16 -4 -11 -14 -15 -32 -11 -18 3 -24 1 -20 -9 3 -8 1 -14 -5 -14
-11 0 -69 -60 -69 -72 0 -5 -7 -8 -15 -8 -8 0 -15 -4 -15 -9 0 -13 -106 -94
-158 -121 -23 -12 -46 -28 -50 -35 -4 -7 -56 -44 -115 -83 -90 -58 -114 -69
-143 -67 -35 4 -53 -6 -145 -76 -19 -14 -50 -32 -69 -39 -19 -8 -61 -34 -94
-59 -32 -25 -73 -56 -92 -68 -22 -15 -31 -28 -28 -38 5 -12 -3 -15 -44 -13
-49 2 -50 3 -56 38 -3 19 -6 50 -6 68 0 20 -4 31 -10 27 -14 -9 -13 -135 1
-135 7 0 5 -9 -4 -24 -22 -32 -6 -43 56 -40 26 2 47 -1 47 -6 0 -5 17 -14 37
-21 30 -10 34 -14 21 -23 -12 -8 -13 -15 -4 -28 13 -21 -12 -71 -53 -104 -20
-17 -25 -29 -23 -56 3 -34 -27 -158 -47 -196 -6 -11 -30 -31 -53 -44 -22 -13
-46 -32 -52 -43 -16 -28 -48 -54 -76 -61 -14 -4 -32 -13 -40 -20 -225 -198
-228 -202 -215 -251 5 -23 4 -25 -9 -14 -9 8 -16 22 -16 32 0 19 -1 19 -40 -1
-44 -23 -48 -31 -23 -51 13 -11 17 -11 20 -1 7 19 23 14 23 -6 0 -22 -27 -48
-55 -54 -16 -2 -20 -12 -22 -43 -3 -84 -61 -181 -128 -214 -68 -34 -107 -13
-138 74 -21 63 -34 195 -18 195 6 0 11 -3 11 -7 0 -14 47 -30 75 -27 34 4 42
11 27 26 -14 14 2 38 24 38 15 0 47 54 37 63 -6 6 27 16 62 20 11 1 29 11 41
23 l21 22 -36 10 c-41 12 -122 2 -145 -17 -8 -7 -23 -11 -33 -10 -10 2 -37 -7
-61 -20 -60 -31 -85 -25 -96 22 -8 31 -6 42 10 65 29 39 154 107 221 121 68
13 192 15 226 2 21 -8 29 -5 53 21 39 41 105 68 174 72 51 2 61 7 88 37 44 47
72 125 65 177 -3 23 -10 42 -14 42 -5 0 -9 -4 -9 -10 0 -5 -20 -31 -45 -57
-40 -42 -44 -44 -35 -20 5 16 10 30 10 33 0 2 -28 -16 -62 -41 -78 -56 -97
-58 -39 -4 43 41 43 42 15 35 l-29 -6 34 28 c35 30 52 84 29 98 -7 4 -8 3 -4
-4 9 -15 1 -15 -24 0 -15 10 -22 10 -32 0 -6 -6 -27 -12 -46 -12 -26 0 -33 -4
-28 -15 3 -9 -7 -24 -27 -38 -44 -33 -57 -40 -57 -29 0 5 11 15 25 22 14 8 24
19 21 26 -3 7 3 10 17 8 12 -2 16 -2 10 2 -29 13 2 37 52 38 14 1 19 7 17 20
-3 14 1 17 14 12 14 -5 15 -4 5 8 -10 12 -16 13 -26 3 -9 -8 -10 -16 -3 -24
13 -16 3 -17 -24 -2 -15 8 -19 8 -13 -1 4 -7 2 -10 -7 -8 -18 4 -112 -64 -133
-96 -9 -14 -14 -30 -10 -36 4 -6 1 -9 -7 -8 -8 2 -13 -6 -12 -19 0 -12 -2 -21
-5 -20 -11 3 -176 -169 -193 -201 -18 -34 -38 -39 -82 -22 -14 5 -65 14 -113
21 -120 16 -128 19 -142 72 -12 42 -12 45 13 72 49 52 58 108 60 355 l2 225
33 65 c21 40 65 96 116 150 l83 86 7 99 c4 54 5 177 2 274 -6 196 -19 263 -81
413 l-36 87 14 68 c21 97 42 155 88 242 54 101 68 121 84 121 23 0 28 -29 9
-50 -13 -15 -16 -30 -11 -75 4 -45 12 -64 41 -97 19 -23 35 -45 35 -49 0 -16
33 -18 73 -4 41 14 42 14 62 -12 16 -19 26 -24 43 -19 12 4 22 11 22 16 0 5
-35 32 -77 60 -78 51 -133 109 -133 140 0 13 8 15 36 12 36 -4 37 -4 30 24
-17 78 -24 149 -16 159 6 7 7 15 3 18 -9 10 51 8 147 -3z m2100 -315 c0 -8 9
-19 20 -25 11 -6 20 -15 20 -20 0 -10 -63 20 -68 33 -2 4 -11 7 -20 7 -15 0
-15 2 -2 10 22 15 50 12 50 -5z m931 -247 c-17 -23 -31 -46 -31 -51 0 -5 -27
-43 -60 -84 -33 -42 -57 -79 -54 -84 3 -5 0 -9 -7 -9 -7 0 -10 -3 -6 -6 3 -3
-14 -35 -39 -71 -24 -35 -45 -70 -45 -76 -3 -28 -5 -33 -22 -57 -10 -14 -29
-43 -42 -65 -39 -64 -30 -12 9 59 18 34 36 77 40 97 3 20 29 67 56 105 27 38
72 103 101 144 53 77 119 153 127 145 2 -2 -10 -23 -27 -47z m-1809 -31 c3 -6
34 -11 67 -11 38 -1 63 -6 66 -13 2 -7 11 -10 20 -7 12 5 15 -3 15 -45 0 -39
-4 -51 -15 -51 -11 0 -15 11 -15 36 0 23 -4 33 -11 28 -6 -3 -8 -16 -5 -29 3
-12 -1 -40 -8 -61 -8 -22 -15 -31 -15 -21 -1 26 -39 22 -44 -5 -4 -23 -4 -23
-15 2 -10 24 -11 24 -11 3 -1 -12 -9 -24 -18 -28 -19 -6 -73 -84 -73 -104 0
-6 -4 -11 -10 -11 -5 0 -10 8 -10 19 0 10 -6 24 -14 30 -11 9 -16 5 -26 -19
-16 -40 -34 -33 -38 13 -4 45 -17 48 -25 7 -8 -39 -22 -39 -22 0 0 45 -19 40
-27 -8 -9 -53 -14 -62 -38 -62 -10 0 -20 -4 -22 -9 -1 -5 -33 -12 -69 -16 -56
-6 -67 -4 -72 9 -11 27 3 46 34 46 16 0 29 4 29 9 0 5 9 13 20 16 11 3 20 11
20 16 0 5 -9 9 -20 9 -11 0 -20 4 -20 10 0 6 -10 5 -25 -2 -14 -6 -26 -9 -28
-7 -44 58 -66 112 -72 169 -3 38 -2 71 4 80 17 26 477 33 493 7z m-177 -327
c0 -7 -6 -15 -12 -17 -8 -3 -13 4 -13 17 0 13 5 20 13 18 6 -3 12 -11 12 -18z
m1197 -80 c-3 -11 0 -11 13 0 8 7 19 10 23 6 8 -9 -26 -36 -44 -36 -17 0 -27
18 -20 36 7 18 32 12 28 -6z m-1308 -12 c-5 -7 0 -9 14 -6 17 5 22 2 22 -14 0
-10 -5 -16 -10 -13 -6 3 -17 -1 -26 -9 -8 -9 -22 -16 -30 -16 -19 0 -18 29 1
36 8 4 15 15 15 26 0 10 5 16 10 13 6 -4 7 -11 4 -17z m1261 -26 c-3 -3 -11 0
-18 7 -9 10 -8 11 6 5 10 -3 15 -9 12 -12z m-234 -30 c-12 -22 -51 -58 -51
-47 0 9 50 65 57 65 2 0 -1 -8 -6 -18z m962 -124 c-7 -13 -21 -9 -27 8 -4 9
-1 23 6 32 11 13 13 11 19 -9 3 -13 4 -27 2 -31z m67 11 c0 -11 -7 -19 -15
-19 -10 0 -15 10 -15 31 0 27 2 30 15 19 8 -7 15 -21 15 -31z m62 -26 c-7 -20
-19 -6 -24 27 -2 16 0 31 6 33 12 4 25 -40 18 -60z m-383 26 c-20 -13 -29 -11
-29 5 0 16 33 27 39 13 2 -5 -3 -13 -10 -18z m-215 -34 c-4 -8 -10 -12 -15 -9
-11 6 -2 24 11 24 5 0 7 -7 4 -15z m236 11 c0 -2 -6 -19 -14 -37 -8 -19 -15
-37 -15 -42 -1 -11 -61 -127 -66 -127 -7 0 7 74 21 109 18 42 18 41 -7 41 -11
0 -17 5 -14 10 3 6 15 10 25 10 10 0 22 9 25 20 3 11 15 20 26 20 10 0 19 -2
19 -4z m-357 -62 c-18 -14 -33 -33 -33 -42 0 -10 -7 -28 -16 -40 -11 -15 -15
-38 -12 -68 2 -31 0 -43 -8 -40 -7 3 -15 2 -18 -2 -7 -7 87 -40 119 -42 11 0
34 -7 50 -14 29 -12 28 -13 -22 -8 -47 4 -53 2 -53 -14 1 -11 7 -30 15 -44 20
-35 19 -40 -13 -40 -40 0 -112 -55 -119 -91 -3 -16 -10 -32 -14 -35 -5 -3 -9
-12 -9 -21 0 -15 -67 -83 -82 -83 -4 0 -8 -7 -8 -15 0 -8 -7 -15 -15 -15 -8 0
-15 -7 -15 -15 0 -8 -4 -15 -8 -15 -5 0 -9 -6 -9 -12 0 -7 -8 -31 -18 -52 -11
-22 -19 -58 -19 -80 -1 -40 -2 -41 -36 -43 -19 -1 -59 4 -87 13 -48 13 -55 19
-77 62 -20 40 -23 61 -22 142 1 111 12 140 87 225 27 31 49 60 49 64 0 29 122
111 165 111 9 0 13 5 10 10 -4 6 -10 8 -15 5 -18 -11 4 35 40 82 28 37 35 54
27 62 -14 14 -30 15 -22 1 3 -5 1 -10 -5 -10 -6 0 -8 -4 -5 -10 3 -5 -1 -10
-9 -10 -16 0 -20 -11 -16 -40 2 -13 -1 -12 -16 2 -20 17 -104 21 -104 5 0 -5
-7 -7 -14 -4 -11 4 -13 1 -9 -10 4 -11 2 -14 -5 -9 -7 4 -12 16 -12 27 0 16 5
19 19 14 11 -3 22 -1 26 5 3 5 14 10 25 10 10 0 42 18 71 40 30 22 57 40 60
40 20 0 37 -13 33 -25 -3 -7 0 -16 6 -20 13 -8 42 14 34 26 -3 5 3 12 13 15
10 3 27 10 38 14 22 10 52 17 75 19 8 0 0 -11 -17 -25z m-581 -113 l-4 -30 62
15 c60 14 89 12 62 -5 -6 -4 -18 -25 -25 -46 l-14 -40 -7 38 c-4 20 -10 37
-14 37 -4 0 -15 -17 -24 -38 -11 -24 -25 -38 -38 -39 -17 -2 -18 1 -10 18 8
13 7 19 -1 19 -6 0 -13 -9 -16 -20 -3 -11 -8 -20 -12 -20 -3 0 -17 -3 -30 -7
-17 -4 -22 -3 -17 5 4 7 2 12 -3 12 -6 0 -11 -4 -11 -10 0 -5 -5 -10 -11 -10
-7 0 -8 7 -4 18 11 27 13 62 3 56 -5 -3 -8 -11 -7 -17 3 -29 -2 -39 -17 -33
-12 5 -15 2 -10 -9 5 -15 -19 -33 -30 -22 -8 8 46 111 65 122 13 8 70 25 112
34 3 0 4 -12 1 -28z m183 -51 c-1 -67 -14 -114 -16 -54 0 16 -6 45 -12 64 -11
32 -10 36 8 47 11 6 20 11 21 12 0 1 0 -30 -1 -69z m669 -25 c-1 -15 -9 -36
-17 -49 -8 -12 -21 -41 -28 -64 -14 -48 -39 -77 -39 -46 0 34 69 184 84 184 2
0 2 -11 0 -25z m-788 -32 c-10 -10 -19 5 -10 18 6 11 8 11 12 0 2 -7 1 -15 -2
-18z m61 -5 c-3 -8 -6 -5 -6 6 -1 11 2 17 5 13 3 -3 4 -12 1 -19z m723 -71
c-12 -26 -23 -47 -25 -47 -5 0 11 46 27 77 20 41 19 17 -2 -30z m-50 -117 c0
-5 -4 -10 -10 -10 -5 0 -10 5 -10 10 0 6 5 10 10 10 6 0 10 -4 10 -10z m-1030
-13 c0 -2 -14 -16 -31 -33 -24 -23 -29 -25 -23 -9 10 29 25 45 40 45 8 0 14
-1 14 -3z m-900 -57 c-8 -5 -24 -10 -35 -10 -17 0 -17 2 -5 10 8 5 24 10 35
10 17 0 17 -2 5 -10z m1127 -52 c6 -29 9 -55 7 -57 -1 -2 -16 11 -33 29 -29
32 -29 34 -13 56 9 13 19 24 23 24 3 0 10 -24 16 -52z m760 20 c-3 -8 -6 -5
-6 6 -1 11 2 17 5 13 3 -3 4 -12 1 -19z m-1108 -55 c-5 -16 -19 -39 -30 -53
l-20 -25 16 33 c14 30 14 32 -2 32 -15 0 -14 4 7 20 34 27 41 25 29 -7z m1168
-80 c-26 -63 -42 -111 -78 -240 -12 -46 -26 -83 -31 -83 -4 0 -8 5 -8 11 0 5
-5 7 -11 4 -6 -4 -7 -19 -4 -35 5 -23 2 -32 -19 -45 -23 -16 -27 -16 -42 -1
-8 9 -19 14 -24 11 -15 -9 -21 14 -10 35 6 11 34 38 63 59 51 39 52 41 91 163
39 126 88 227 94 196 2 -9 -8 -42 -21 -75z m-1076 38 c-12 -16 -21 -36 -21
-45 0 -9 -5 -16 -10 -16 -17 0 1 54 24 72 29 24 30 22 7 -11z m41 -13 c-16
-16 -15 -31 1 -22 6 4 4 -2 -7 -14 -10 -12 -22 -36 -26 -54 l-7 -33 -8 38 c-8
41 7 93 24 82 5 -3 12 -1 16 5 3 5 9 10 13 10 3 0 1 -5 -6 -12z m243 2 c8 -13
-15 -13 -35 0 -12 8 -11 10 7 10 12 0 25 -4 28 -10z m-215 -65 c-7 -8 -18 -32
-26 -52 -10 -29 -13 -32 -14 -15 0 29 27 82 41 82 8 0 7 -5 -1 -15z m40 -24
c0 -6 -5 -13 -11 -17 -6 -3 -17 -20 -25 -38 l-13 -31 -1 32 c0 17 7 39 16 47
17 18 34 21 34 7z m1518 -14 c-16 -6 -30 -19 -34 -29 -3 -10 -25 -32 -50 -48
-24 -17 -47 -42 -50 -55 -3 -14 -12 -25 -20 -25 -8 0 -11 -6 -7 -15 3 -10 -9
-29 -33 -53 -59 -56 -74 -85 -75 -144 -1 -72 -17 -26 -18 54 -1 62 26 135 72
196 52 69 156 131 217 130 l25 0 -27 -11z m-1485 -3 c3 -3 -3 -23 -14 -42 -10
-20 -19 -46 -19 -57 0 -17 -2 -17 -10 -5 -26 40 12 134 43 104z m-2699 -110
c34 -60 18 -48 -23 17 -18 29 -26 47 -17 40 8 -7 26 -33 40 -57z m2698 44 c-7
-7 -12 -8 -12 -2 0 6 3 14 7 17 3 4 9 5 12 2 2 -3 -1 -11 -7 -17z m33 1 c-4
-6 -11 -23 -15 -37 -6 -23 -9 -24 -15 -9 -5 11 -1 25 10 37 20 22 30 27 20 9z
m65 -16 c0 -5 -12 -26 -26 -48 -23 -38 -24 -38 -18 -10 9 39 22 65 34 65 6 0
10 -3 10 -7z m30 -23 c-12 -22 -1 -27 19 -7 13 13 -15 -62 -29 -77 -12 -12
-31 29 -23 51 6 18 33 53 40 53 2 0 -1 -9 -7 -20z m797 -42 c-3 -8 -6 -5 -6 6
-1 11 2 17 5 13 3 -3 4 -12 1 -19z m-722 -53 c-28 -83 -35 -90 -35 -33 0 31 7
54 21 72 33 42 37 31 14 -39z m-44 18 c-10 -17 -10 -16 -11 3 0 23 13 41 18
25 2 -6 -1 -18 -7 -28z m92 11 c-5 -14 -3 -15 17 -4 l23 13 -21 -28 c-12 -15
-22 -38 -22 -51 0 -35 -16 -29 -24 8 -4 20 -1 39 9 55 18 27 27 30 18 7z m91
-83 c-7 -20 -13 -44 -14 -54 0 -10 -4 -16 -9 -13 -13 8 -20 56 -9 56 6 0 7 11
4 24 -5 20 -2 24 18 24 22 0 22 -2 10 -37z m551 10 c-3 -6 -11 -8 -17 -5 -6 4
-5 9 3 15 16 10 23 4 14 -10z m-980 -2 c-4 -5 -15 -38 -25 -72 -17 -57 -19
-59 -19 -25 -1 41 14 89 32 100 16 11 19 10 12 -3z m-390 -20 c4 -12 2 -26 -4
-32 -8 -8 -11 -7 -11 5 0 9 -3 23 -6 32 -3 9 -1 16 4 16 6 0 14 -9 17 -21z
m870 -11 c-10 -31 -25 -47 -25 -26 0 24 11 48 22 48 5 0 6 -10 3 -22z m-2047
-17 c-24 -31 -38 -38 -38 -20 0 23 22 49 41 49 20 0 20 -1 -3 -29z m1586 14
c-4 -8 -8 -15 -10 -15 -2 0 -4 7 -4 15 0 8 4 15 10 15 5 0 7 -7 4 -15z m611
-5 c-3 -5 -1 -10 4 -10 6 0 2 -17 -9 -37 -11 -21 -20 -46 -20 -55 0 -22 -16
-23 -24 -2 -11 29 -6 77 11 96 17 19 49 26 38 8z m-1173 -9 c9 -1 5 -37 -5
-47 -4 -4 -7 -20 -7 -36 0 -15 -4 -28 -10 -28 -5 0 -10 -11 -10 -24 0 -30 -9
-56 -20 -56 -5 0 -3 13 2 28 10 24 7 37 -17 85 -29 56 -29 57 -10 72 11 8 31
13 45 11 14 -3 28 -5 32 -5z m603 -33 c-6 -38 -24 -85 -25 -66 0 16 22 108 27
108 2 0 2 -19 -2 -42z m501 -3 c-15 -58 -22 -63 -30 -22 -8 42 1 67 24 67 15
0 16 -5 6 -45z m-449 -17 c-2 -13 -4 -5 -4 17 -1 22 1 32 4 23 2 -10 2 -28 0
-40z m-110 20 c-3 -8 -6 -5 -6 6 -1 11 2 17 5 13 3 -3 4 -12 1 -19z m20 0 c-3
-8 -6 -5 -6 6 -1 11 2 17 5 13 3 -3 4 -12 1 -19z m718 -5 c-4 -10 -10 -29 -13
-43 -7 -38 -22 -53 -38 -39 -20 16 -17 42 7 73 24 30 56 36 44 9z m-1165 -14
c0 -11 -4 -18 -10 -14 -5 3 -7 12 -3 20 7 21 13 19 13 -6z m-1817 1 c18 0 27
-14 53 -83 17 -45 50 -150 74 -233 37 -131 45 -151 61 -147 14 4 19 -3 24 -34
4 -21 9 -46 12 -55 2 -11 -1 -18 -9 -18 -8 0 -22 -35 -37 -90 -30 -107 -63
-148 -130 -157 -24 -3 -41 -11 -41 -18 0 -8 8 -11 19 -8 10 3 37 -7 61 -22 23
-14 44 -24 47 -21 7 7 32 -17 26 -26 -4 -7 12 -11 21 -5 1 1 15 -13 30 -31 16
-17 32 -29 38 -26 7 4 6 9 -1 14 -7 3 -9 14 -5 24 5 13 14 15 43 10 20 -4 44
-11 55 -16 12 -7 16 -7 12 0 -4 6 9 8 36 5 31 -5 39 -3 33 6 -5 9 2 12 26 9
l33 -3 22 75 c12 41 28 101 34 133 18 89 27 80 55 -53 26 -118 26 -130 8 -123
-13 5 -14 -2 -10 -51 3 -31 1 -59 -4 -61 -4 -3 -6 -20 -3 -38 4 -22 3 -28 -4
-18 -7 9 -12 10 -16 2 -4 -6 -16 -11 -27 -11 -12 0 -29 -10 -39 -22 -16 -20
-17 -25 -4 -39 8 -9 14 -20 13 -25 -3 -19 1 -34 11 -34 5 0 7 8 3 18 -4 12 2
9 23 -10 16 -14 49 -30 74 -35 37 -7 45 -13 44 -31 0 -14 3 -19 10 -14 6 4 29
7 51 6 66 -4 72 -6 35 -13 l-35 -7 45 -10 c50 -11 59 -5 35 23 -26 31 -22 34
59 39 81 4 105 -3 147 -45 9 -9 31 -29 49 -44 17 -16 28 -32 24 -36 -20 -18
-93 -40 -99 -31 -10 16 -25 12 -19 -5 4 -9 -6 -22 -28 -35 -18 -11 -34 -15
-36 -10 -2 6 -8 10 -13 10 -4 0 -6 -7 -2 -15 5 -14 2 -14 -23 -3 -16 7 -37 20
-47 29 -10 9 -43 29 -75 44 -31 16 -65 36 -75 44 -25 21 -74 23 -82 4 -3 -10
-13 -13 -26 -10 -22 6 -49 -12 -49 -32 0 -7 -23 -11 -56 -11 -71 0 -88 15 -79
70 6 34 10 39 38 42 45 4 48 28 3 28 l-36 0 0 70 0 71 -52 -40 c-29 -22 -66
-44 -81 -50 -37 -14 -80 -14 -72 0 9 13 -25 39 -41 32 -8 -3 -11 2 -7 16 4 17
2 20 -11 15 -10 -4 -27 -2 -39 4 -35 17 -88 31 -142 37 -56 7 -112 -9 -171
-49 -28 -19 -42 -22 -64 -16 -37 11 -59 -2 -40 -25 12 -14 12 -18 -1 -27 -11
-7 -11 -11 -1 -15 6 -2 12 -11 12 -19 0 -9 11 -14 35 -14 34 0 48 -14 23 -23
-23 -8 4 -24 59 -36 67 -14 206 -3 261 21 56 23 69 23 77 -3 8 -24 -16 -53
-64 -82 -30 -17 -31 -17 -24 0 6 17 5 17 -13 3 -86 -70 -370 -103 -499 -59
-30 11 -45 23 -59 52 -16 34 -17 44 -6 78 7 21 17 39 22 39 4 0 8 9 8 19 0 11
6 26 14 33 31 30 63 55 79 61 9 3 17 11 17 17 0 5 6 10 14 10 7 0 40 12 72 26
33 15 76 34 97 43 37 15 38 18 33 56 -2 22 -10 41 -15 43 -6 2 -11 13 -11 24
0 17 -3 18 -15 8 -8 -7 -15 -20 -16 -29 0 -12 -2 -11 -9 4 -7 18 -8 18 -15 -7
-4 -16 -11 -28 -16 -28 -5 0 -6 -7 -3 -15 7 -17 -10 -19 -71 -6 -22 5 -65 14
-95 21 -30 6 -100 13 -154 16 -55 3 -108 10 -119 16 -15 8 -18 7 -12 -2 5 -8
3 -11 -6 -8 -15 5 -26 58 -12 58 4 0 24 -4 43 -10 22 -6 38 -6 44 0 15 15 27
12 24 -6 -3 -15 40 -20 205 -25 9 0 17 -8 17 -17 0 -12 3 -13 8 -5 8 13 72 13
72 1 0 -5 5 -8 11 -8 20 0 3 24 -22 31 -21 6 -20 7 9 8 29 1 33 4 30 24 -3 22
2 32 34 67 21 23 63 138 54 147 -4 4 -11 1 -16 -6 -5 -10 -8 -6 -7 12 1 14 6
23 11 20 12 -8 24 16 19 38 -7 27 -22 23 -34 -8 -6 -16 -17 -36 -26 -45 -8 -9
-12 -21 -9 -27 7 -11 -19 -71 -31 -71 -3 0 -2 15 1 33 4 17 9 42 12 55 8 42
58 123 107 174 49 51 57 68 33 68 -7 0 -19 6 -26 14 -6 8 -19 12 -28 9 -13 -4
-14 -3 -6 6 8 8 26 8 75 -3 35 -8 58 -14 52 -15 -7 -1 -13 -10 -13 -22 0 -39
23 -13 37 40 7 30 11 56 8 59 -3 3 0 11 6 18 9 11 15 11 32 -1 12 -8 25 -15
30 -15 12 0 -21 43 -35 46 -7 1 -53 10 -103 19 -49 9 -124 17 -165 19 -42 2
-84 8 -95 14 -11 5 -63 16 -115 22 -52 7 -101 15 -108 18 -10 3 -13 0 -10 -9
3 -9 26 -16 59 -20 30 -4 67 -12 82 -18 16 -6 44 -11 63 -11 19 0 34 -4 34
-10 0 -5 -13 -10 -30 -10 -44 0 -39 -28 10 -48 22 -9 40 -20 40 -24 0 -11
-102 -20 -155 -14 -166 20 -152 21 -185 -14 l-30 -32 0 41 c0 34 -3 39 -17 34
-10 -4 -21 -11 -25 -17 -6 -8 -11 -7 -16 2 -12 18 -109 11 -97 -8 9 -15 -13
-21 -32 -10 -15 10 -29 5 -77 -24 -70 -42 -89 -46 -56 -10 21 21 22 27 10 34
-22 14 -40 12 -46 -5 -4 -8 -11 -15 -17 -15 -6 0 -7 3 -4 7 4 3 2 12 -4 20 -9
10 -3 13 34 13 25 0 49 5 52 10 3 6 -3 10 -14 10 -12 0 -21 5 -21 10 0 6 7 10
16 10 8 0 13 4 10 9 -3 5 -17 9 -31 9 -13 0 -23 -4 -21 -7 3 -4 -5 -8 -17 -8
-17 -2 -19 0 -7 7 13 9 13 10 0 11 -8 0 -1 7 17 15 41 18 113 27 113 14 0 -6
10 -10 23 -11 21 0 21 -1 -3 -11 -14 -6 -28 -11 -31 -10 -4 1 -9 -10 -12 -24
-4 -25 -3 -26 32 -20 20 3 41 12 47 21 6 8 19 15 28 15 9 0 16 5 16 11 0 7
-10 9 -25 5 -18 -5 -25 -2 -25 9 0 8 6 15 13 15 8 0 7 3 -3 10 -12 7 -10 11
10 19 16 6 19 10 9 10 -9 1 -20 8 -23 17 -6 14 1 16 45 12 28 -3 66 0 83 6 53
18 110 60 117 86 l7 25 1 -27 c1 -26 4 -28 49 -28 26 0 72 -7 102 -15 30 -9
91 -18 135 -21 108 -7 128 -12 122 -29 -5 -11 12 -14 81 -14 48 -1 102 -5 120
-10 l33 -10 -5 42 c-20 163 -17 214 11 203 8 -3 24 -6 36 -6z m3127 0 c0 -5
-7 -10 -16 -10 -8 0 -12 5 -9 10 3 6 10 10 16 10 5 0 9 -4 9 -10z m-893 -22
c-3 -8 -6 -5 -6 6 -1 11 2 17 5 13 3 -3 4 -12 1 -19z m20 0 c-3 -8 -6 -5 -6 6
-1 11 2 17 5 13 3 -3 4 -12 1 -19z m130 -25 c-3 -10 -5 -2 -5 17 0 19 2 27 5
18 2 -10 2 -26 0 -35z m-40 -35 c-2 -13 -4 -5 -4 17 -1 22 1 32 4 23 2 -10 2
-28 0 -40z m669 30 c-3 -13 -6 -31 -6 -40 0 -10 -4 -18 -10 -18 -11 0 -14 63
-3 73 14 15 25 6 19 -15z m-559 -35 c-3 -10 -5 -4 -5 12 0 17 2 24 5 18 2 -7
2 -21 0 -30z m593 25 c0 -7 -5 -20 -10 -28 -8 -12 -10 -9 -10 13 0 15 5 27 10
27 6 0 10 -6 10 -12z m-633 -30 c-3 -7 -5 -2 -5 12 0 14 2 19 5 13 2 -7 2 -19
0 -25z m60 0 c-3 -7 -5 -2 -5 12 0 14 2 19 5 13 2 -7 2 -19 0 -25z m93 -4 c0
-14 -4 -23 -9 -20 -5 3 -7 15 -4 26 7 28 13 25 13 -6z m76 -23 c-8 -7 -19 -10
-25 -7 -7 4 -4 13 7 24 11 12 19 14 24 8 4 -6 1 -17 -6 -25z m-2169 13 c-3 -3
-12 -4 -19 -1 -8 3 -5 6 6 6 11 1 17 -2 13 -5z m-230 -50 c-3 -3 -12 -4 -19
-1 -8 3 -5 6 6 6 11 1 17 -2 13 -5z m-1762 -14 c-3 -5 -11 -10 -16 -10 -6 0
-7 5 -4 10 3 6 11 10 16 10 6 0 7 -4 4 -10z m45 0 c0 -5 -5 -10 -11 -10 -5 0
-7 5 -4 10 3 6 8 10 11 10 2 0 4 -4 4 -10z m293 3 c4 -3 0 -14 -9 -24 -17 -19
-55 -14 -48 6 3 7 -3 15 -13 18 -10 3 0 5 23 6 22 0 44 -2 47 -6z m176 -37
c-2 -2 -20 -6 -39 -10 -25 -4 -31 -3 -20 4 14 9 69 15 59 6z m2101 0 c0 -2 -8
-10 -17 -17 -16 -13 -17 -12 -4 4 13 16 21 21 21 13z m-2360 -10 c0 -2 -7 -7
-16 -10 -8 -3 -12 -2 -9 4 6 10 25 14 25 6z m3575 -96 c15 -89 16 -108 6 -114
-6 -4 -52 1 -101 10 -72 14 -89 21 -86 33 2 9 7 28 10 43 4 19 11 26 21 22 9
-4 18 1 21 10 4 9 24 26 45 37 22 11 39 25 39 32 1 24 38 -38 45 -73z m-3428
54 c-3 -3 -12 -4 -19 -1 -8 3 -5 6 6 6 11 1 17 -2 13 -5z m60 0 c-3 -3 -12 -4
-19 -1 -8 3 -5 6 6 6 11 1 17 -2 13 -5z m3919 -70 c9 -32 25 -76 36 -97 30
-59 0 -40 -32 20 -29 54 -53 168 -30 147 6 -6 18 -37 26 -70z m-181 -9 c10
-36 22 -68 27 -71 4 -3 8 -10 8 -17 0 -26 -29 22 -49 81 -23 68 -26 86 -12 78
5 -3 17 -35 26 -71z m301 21 c4 -30 2 -46 -5 -46 -7 0 -11 21 -11 52 0 61 9
59 16 -6z m-2836 34 c0 -5 -2 -10 -4 -10 -3 0 -8 5 -11 10 -3 6 -1 10 4 10 6
0 11 -4 11 -10z m1626 -5 c10 -8 29 -15 41 -15 31 0 36 -14 13 -35 -17 -15
-27 -16 -82 -7 -107 19 -128 24 -128 32 0 14 24 17 42 6 13 -8 24 -5 45 11 34
26 43 27 69 8z m741 -7 c-3 -8 -6 -5 -6 6 -1 11 2 17 5 13 3 -3 4 -12 1 -19z
m-3947 2 c0 -5 -5 -10 -11 -10 -5 0 -7 5 -4 10 3 6 8 10 11 10 2 0 4 -4 4 -10z
m4460 -22 c0 -5 -4 -8 -10 -8 -5 0 -10 10 -10 23 0 18 2 19 10 7 5 -8 10 -18
10 -22z m-1086 1 c20 -16 30 -18 40 -10 7 6 16 8 19 4 11 -10 8 -63 -3 -63
-22 0 -100 56 -100 72 0 23 11 23 44 -3z m1006 7 c0 -3 -4 -8 -10 -11 -5 -3
-10 -1 -10 4 0 6 5 11 10 11 6 0 10 -2 10 -4z m-2420 -10 c0 -2 -7 -7 -16 -10
-8 -3 -12 -2 -9 4 6 10 25 14 25 6z m2010 -73 c5 -38 12 -79 15 -89 3 -10 -1
-5 -9 11 -13 29 -33 165 -22 154 3 -3 10 -37 16 -76z m-3640 47 c0 -5 -2 -10
-4 -10 -3 0 -8 5 -11 10 -3 6 -1 10 4 10 6 0 11 -4 11 -10z m3527 -12 c-3 -8
-6 -5 -6 6 -1 11 2 17 5 13 3 -3 4 -12 1 -19z m525 -8 c5 -36 -8 -41 -14 -5
-4 21 -1 35 8 35 1 0 4 -13 6 -30z m-4102 3 c0 -5 -14 -8 -30 -9 -17 -1 -30 3
-30 7 0 5 14 9 30 9 17 0 30 -3 30 -7z m4080 -47 c-1 -16 -5 -12 -15 13 -19
42 -19 52 0 27 8 -11 15 -29 15 -40z m-4260 34 c0 -5 -7 -10 -15 -10 -8 0 -15
5 -15 10 0 6 7 10 15 10 8 0 15 -4 15 -10z m4087 -12 c-3 -8 -6 -5 -6 6 -1 11
2 17 5 13 3 -3 4 -12 1 -19z m433 -7 c0 -10 3 -21 7 -25 4 -3 9 -28 11 -54 3
-35 1 -44 -8 -36 -23 23 -41 152 -20 139 6 -3 10 -14 10 -24z m-4763 13 c-3
-3 -12 -4 -19 -1 -8 3 -5 6 6 6 11 1 17 -2 13 -5z m173 1 c0 -2 -10 -10 -22
-16 -21 -11 -22 -11 -9 4 13 16 31 23 31 12z m560 2 c0 -1 -9 -10 -20 -20 -16
-13 -20 -14 -20 -3 0 8 8 17 18 19 9 3 18 5 20 6 1 0 2 0 2 -2z m-784 -32 c-3
-10 1 -15 11 -15 9 0 14 -3 10 -6 -12 -12 -37 5 -31 21 3 8 8 15 11 15 3 0 3
-7 -1 -15z m104 11 c0 -3 -4 -8 -10 -11 -5 -3 -10 -1 -10 4 0 6 5 11 10 11 6
0 10 -2 10 -4z m757 -18 c-3 -8 -6 -5 -6 6 -1 11 2 17 5 13 3 -3 4 -12 1 -19z
m433 12 c0 -5 -7 -7 -15 -4 -8 4 -15 8 -15 10 0 2 7 4 15 4 8 0 15 -4 15 -10z
m1175 0 c-3 -5 -12 -10 -18 -10 -7 0 -6 4 3 10 19 12 23 12 15 0z m-2202 -15
c0 -6 -7 -11 -16 -13 -12 -3 -15 1 -11 13 7 17 25 17 27 0z m97 9 c0 -11 -28
-33 -34 -27 -3 3 -15 -4 -26 -17 -11 -13 -23 -20 -27 -16 -9 9 56 65 75 66 6
0 12 -3 12 -6z m-212 -20 c-9 -9 -21 -13 -27 -10 -19 12 -12 22 16 24 25 2 26
1 11 -14z m372 -14 c0 -12 -5 -17 -14 -14 -8 3 -17 1 -21 -5 -8 -14 -35 -14
-35 0 0 5 5 7 10 4 6 -3 10 -1 10 5 0 8 25 24 48 29 1 1 2 -8 2 -19z m3729
-25 c0 -5 -4 -3 -9 5 -5 8 -9 22 -9 30 0 16 17 -16 18 -35z m-2384 25 c3 -5 1
-10 -4 -10 -6 0 -11 5 -11 10 0 6 2 10 4 10 3 0 8 -4 11 -10z m-765 -10 c19
-6 67 -12 105 -14 73 -3 195 -26 195 -36 0 -3 -21 -7 -46 -8 -26 -1 -52 -6
-58 -11 -8 -6 -35 -7 -75 -1 -34 5 -70 6 -79 3 -13 -4 -12 -1 3 10 11 9 26 17
33 17 6 0 12 4 12 10 0 5 -12 7 -27 4 -114 -20 -129 -22 -140 -12 -9 7 -9 14
0 29 13 22 28 23 77 9z m-184 -37 c-10 -10 -46 -11 -46 -1 0 4 12 8 27 8 14 0
23 -3 19 -7z m3593 -39 c9 -20 9 -25 0 -22 -14 5 -32 48 -20 48 4 0 13 -12 20
-26z m-1344 6 c-11 -5 -31 -8 -45 -8 l-25 0 25 8 c14 4 34 8 45 8 l20 1 -20
-9z m1309 -32 c4 -17 2 -28 -4 -28 -5 0 -10 14 -10 32 0 36 4 35 14 -4z
m-1378 10 c4 -7 3 -8 -4 -4 -7 4 -12 3 -12 -3 0 -9 -55 -41 -72 -41 -21 0 -4
18 35 38 50 26 44 25 53 10z m1348 -48 c6 -42 6 -44 -9 -26 -8 11 -15 36 -15
55 0 47 16 28 24 -29z m-30 -9 c14 -27 22 -51 19 -55 -6 -6 -53 76 -53 94 0
20 10 9 34 -39z m-1923 7 c6 -48 4 -108 -3 -108 -4 0 -9 10 -9 23 -1 12 -6
-27 -10 -87 -6 -76 -14 -117 -26 -135 -10 -14 -16 -29 -15 -33 1 -5 -2 -8 -8
-8 -5 0 -10 -7 -10 -16 0 -15 -23 -44 -34 -44 -3 0 -6 12 -6 26 0 14 -4 23
-10 19 -5 -3 -18 3 -30 15 -22 22 -28 39 -6 21 13 -11 21 24 29 129 2 25 36
71 48 64 7 -4 29 65 29 91 0 36 58 76 61 43z m1898 -47 c10 -34 10 -45 1 -51
-7 -4 -9 -13 -6 -19 4 -6 3 -11 -3 -11 -14 0 -34 74 -21 78 5 2 7 18 3 35 -8
46 11 22 26 -32z m-1335 23 c81 -27 127 -53 96 -55 -81 -5 -103 -10 -125 -27
-15 -12 -32 -19 -40 -16 -7 3 -16 1 -20 -5 -3 -6 -1 -11 6 -11 8 0 7 -5 -2
-17 -22 -25 -17 -55 14 -86 19 -19 34 -26 47 -22 11 4 20 2 20 -3 0 -5 16 -13
35 -16 20 -4 33 -11 30 -15 -6 -11 46 -21 74 -14 11 3 21 9 21 14 0 5 7 9 16
9 9 0 14 6 11 13 -2 6 -10 11 -16 9 -7 -1 -9 2 -6 8 4 6 14 9 22 6 8 -3 12 -2
9 3 -3 4 1 17 9 27 13 16 14 17 9 2 -9 -25 -2 -22 33 11 l31 29 -35 19 c-18
10 -40 28 -48 40 -14 21 -13 23 19 31 55 16 132 -4 211 -53 72 -45 106 -85
104 -127 0 -19 -3 -17 -13 12 -12 32 -13 33 -19 13 -20 -69 -20 -66 2 -60 26
6 27 -3 2 -30 -24 -25 -18 -33 23 -33 36 0 135 -25 147 -37 13 -13 -5 -34 -32
-37 -13 -1 -31 -6 -40 -10 -9 -4 -20 -6 -25 -5 -5 1 -20 -3 -34 -9 -14 -6 -19
-11 -11 -11 11 -1 11 -4 1 -16 -7 -8 -16 -13 -20 -10 -4 2 -16 -2 -26 -10 -18
-14 -18 -16 -1 -29 9 -7 17 -18 17 -24 0 -5 12 -13 27 -17 40 -10 54 -24 47
-50 -12 -49 51 -70 123 -40 19 8 42 15 50 15 8 0 21 7 29 15 9 8 28 15 43 15
40 0 120 26 142 46 10 9 19 26 19 36 0 12 13 24 36 34 23 10 34 20 30 29 -3 9
0 12 10 8 7 -3 14 -11 14 -19 0 -8 5 -14 11 -14 5 0 7 6 3 13 -4 6 -3 8 1 4 5
-4 9 -20 10 -34 0 -14 7 -28 15 -31 13 -5 13 -3 1 12 -14 16 -8 36 6 22 14
-14 7 -81 -12 -110 -25 -37 -137 -90 -225 -106 -74 -13 -152 -2 -360 53 -122
31 -172 36 -196 16 -9 -7 -14 -8 -14 -1 0 6 5 14 10 17 13 8 3 25 -14 25 -8 0
-12 -14 -12 -40 1 -22 -2 -40 -6 -40 -11 0 -34 50 -42 89 -7 39 25 151 50 171
25 22 17 43 -13 37 -67 -13 -353 24 -418 53 -45 21 -78 19 -56 -3 14 -14 14
-37 2 -37 -15 0 -69 61 -84 93 -6 15 -15 27 -19 27 -12 0 -9 -35 4 -48 9 -9 5
-19 -20 -43 -18 -17 -32 -38 -32 -46 0 -19 -25 -43 -45 -43 -9 0 -28 -9 -42
-20 -29 -23 -53 -26 -53 -7 0 42 -23 182 -30 187 -13 8 -35 191 -27 214 4 9
26 25 49 36 41 18 44 18 60 2 9 -9 18 -26 20 -37 2 -11 8 -23 13 -27 6 -5 4
-8 -5 -8 -13 0 -40 -49 -40 -71 0 -3 21 -6 47 -8 25 -1 55 -7 65 -12 14 -8 18
-6 18 8 0 10 12 43 26 73 14 30 20 50 14 43 -9 -8 -20 -8 -41 -1 -16 5 -37 7
-46 4 -13 -5 -14 -4 -3 9 7 8 18 15 24 15 6 0 23 8 36 18 27 19 110 24 123 7
4 -6 10 -5 15 3 8 11 50 29 76 31 5 1 45 -11 90 -25z m1260 -20 c3 -8 2 -12
-4 -9 -6 3 -10 10 -10 16 0 14 7 11 14 -7z m433 -36 c-3 -8 -6 -5 -6 6 -1 11
2 17 5 13 3 -3 4 -12 1 -19z m-457 -32 c0 -12 -5 -7 -19 24 -11 24 -11 24 3 6
9 -11 16 -24 16 -30z m83 -49 c4 -11 3 -16 -3 -12 -13 8 -50 80 -50 97 0 13
40 -51 53 -85z m-29 -96 l21 -24 -22 12 c-29 15 -34 14 -26 -6 5 -12 3 -14 -8
-8 -8 5 -6 -1 4 -13 19 -20 18 -21 -5 -15 -26 7 -49 33 -41 46 3 5 -3 29 -12
53 -17 46 -14 67 7 46 7 -7 17 -26 22 -44 6 -17 16 -33 22 -35 6 -2 -2 23 -17
56 -38 80 -36 92 3 16 16 -33 40 -71 52 -84z m596 108 c0 -6 -4 -7 -10 -4 -5
3 -10 11 -10 16 0 6 5 7 10 4 6 -3 10 -11 10 -16z m-3602 -58 c-13 -17 -26
-30 -30 -30 -12 -1 4 37 25 60 30 32 34 6 5 -30z m-78 -42 c0 -3 -25 -6 -55
-5 -30 0 -55 4 -55 9 0 5 22 7 49 5 39 -2 48 0 44 12 -4 13 -4 13 6 0 6 -8 11
-18 11 -21z m-214 -16 c-10 -10 -19 5 -10 18 6 11 8 11 12 0 2 -7 1 -15 -2
-18z m-32 -12 c4 -5 -3 -7 -14 -4 -23 6 -26 13 -6 13 8 0 17 -4 20 -9z m96 -1
c-12 -8 -9 -10 13 -11 15 -1 32 -3 37 -4 6 -1 20 -3 33 -5 20 -2 20 -2 -6 -10
-33 -10 -118 1 -117 15 0 6 4 10 9 10 5 0 13 3 17 8 4 4 12 7 18 7 6 0 4 -5
-4 -10z m1183 -75 c20 -11 37 -23 37 -27 0 -10 -61 2 -77 15 -14 10 -18 41 -5
35 4 -2 24 -13 45 -23z m1704 -87 c7 -5 17 -7 23 -3 5 3 10 -1 10 -9 0 -8 10
-16 22 -18 26 -4 35 -23 13 -32 -9 -3 -13 -2 -10 4 3 6 2 10 -4 10 -5 0 -11
-6 -14 -12 -3 -10 -9 -9 -23 3 -10 9 -29 20 -41 23 -13 4 -23 11 -23 16 0 11
-43 25 -87 29 -7 1 -13 5 -13 9 0 11 131 -7 147 -20z m-2742 2 c3 -5 -3 -10
-14 -10 -11 0 -25 -8 -30 -17 -9 -15 -10 -15 -11 -2 0 30 41 52 55 29z m2482
-16 c-3 -3 -12 -4 -19 -1 -8 3 -5 6 6 6 11 1 17 -2 13 -5z m-112 -94 c3 -5 1
-10 -4 -10 -6 0 -11 5 -11 10 0 6 2 10 4 10 3 0 8 -4 11 -10z m-972 -20 c3
-12 0 -20 -8 -20 -8 0 -11 8 -8 20 3 11 7 20 8 20 1 0 5 -9 8 -20z m-1318 -10
c3 -6 -1 -7 -9 -4 -18 7 -21 14 -7 14 6 0 13 -4 16 -10z m1320 -60 c3 -5 -1
-10 -9 -10 -9 0 -16 5 -16 10 0 6 4 10 9 10 6 0 13 -4 16 -10z m-1858 -98
c-10 -10 -17 -23 -17 -28 0 -6 -15 -24 -32 -41 -47 -44 -225 -102 -338 -110
-77 -6 -84 -5 -72 10 10 11 11 21 4 34 -16 27 4 51 46 58 130 21 175 30 237
52 39 14 84 34 101 44 17 10 33 16 36 14 3 -3 11 2 19 11 12 15 14 14 23 -5 7
-16 5 -26 -7 -39z m2053 27 c0 -10 -5 -19 -11 -19 -5 0 -8 4 -4 9 3 5 1 12 -5
16 -16 10 -12 25 5 19 8 -4 15 -15 15 -25z m-86 -24 c20 6 20 6 2 -6 -16 -10
-22 -8 -38 11 -10 12 -15 27 -11 34 5 7 11 1 17 -17 8 -21 15 -26 30 -22z
m-587 -57 c-3 -8 -6 -5 -6 6 -1 11 2 17 5 13 3 -3 4 -12 1 -19z m-1997 -24 c0
-8 -6 -14 -14 -14 -9 0 -12 7 -9 20 6 22 23 18 23 -6z m140 -24 c-19 -13 -30
-13 -30 0 0 6 10 10 23 10 18 0 19 -2 7 -10z m8 -37 c7 -7 8 -13 3 -13 -5 0
-16 -3 -25 -6 -11 -4 -16 0 -16 13 0 23 20 26 38 6z m2024 -98 c6 -29 1 -31
-24 -8 -23 21 -23 33 1 33 12 0 20 -9 23 -25z m-237 -85 c-3 -5 -11 -10 -16
-10 -6 0 -7 5 -4 10 3 6 11 10 16 10 6 0 7 -4 4 -10z m-5 -86 c0 -9 -5 -14
-12 -12 -18 6 -21 28 -4 28 9 0 16 -7 16 -16z m2473 -723 c26 -19 89 -50 140
-68 92 -33 117 -51 117 -85 0 -12 -8 -18 -24 -18 -14 0 -27 4 -31 9 -8 14
-136 40 -166 35 -20 -5 -32 2 -62 37 -31 35 -37 49 -37 86 0 50 -2 50 63 4z
m-189 -198 c29 -15 56 -37 56 -46 0 -2 -31 -16 -70 -31 -81 -32 -130 -81 -155
-157 -9 -26 -22 -52 -29 -58 -7 -6 -42 -13 -77 -15 -35 -2 -69 -4 -76 -5 -22
-2 -86 -65 -119 -117 -32 -50 -36 -52 -101 -67 -37 -8 -70 -13 -72 -11 -2 2
-6 26 -9 54 -7 75 18 128 89 194 32 30 64 66 70 79 17 38 97 93 164 113 33 10
78 30 100 45 22 14 54 31 70 36 39 13 120 6 159 -14z"/>
<path d="M2780 7126 c0 -8 6 -16 13 -19 19 -7 41 8 33 22 -10 16 -46 14 -46
-3z"/>
<path d="M1106 5134 c-4 -9 -3 -39 0 -68 9 -61 22 -39 23 37 1 46 -11 62 -23
31z"/>
<path d="M1138 4973 c-1 -32 -2 -92 -4 -134 -1 -42 1 -92 5 -110 6 -30 10 -20
29 76 25 125 27 182 8 208 -24 32 -36 19 -38 -40z"/>
<path d="M3230 6260 c0 -5 7 -10 16 -10 8 0 12 5 9 10 -3 6 -10 10 -16 10 -5
0 -9 -4 -9 -10z"/>
<path d="M2020 6161 c0 -17 2 -31 4 -31 8 0 13 51 5 56 -5 3 -9 -9 -9 -25z"/>
<path d="M2841 5991 c-8 -5 -11 -16 -8 -24 3 -8 -8 -41 -26 -73 -62 -118 -98
-218 -107 -299 -18 -152 -8 -386 24 -535 1 -8 2 46 2 120 -1 91 5 166 17 230
10 52 23 124 28 160 14 91 69 313 79 324 10 10 23 -33 24 -78 1 -36 22 -45 31
-14 8 27 54 99 74 114 20 16 9 47 -23 63 -37 18 -97 24 -115 12z"/>
<path d="M2660 5980 c-109 -4 -121 -6 -95 -17 47 -18 65 -22 136 -28 57 -4 68
-3 84 15 11 12 15 24 9 28 -5 4 -65 5 -134 2z"/>
<path d="M2867 5652 c-21 -23 -21 -32 -3 -32 8 0 18 9 21 21 9 28 2 33 -18 11z"/>
<path d="M3005 5287 c-5 -17 -3 -33 4 -40 6 -6 11 -19 11 -29 0 -10 5 -18 10
-18 6 0 9 -5 8 -11 -2 -6 3 -14 11 -17 11 -3 12 0 5 14 -4 11 -8 38 -8 61 0
23 -4 39 -8 37 -4 -2 -11 3 -17 13 -8 16 -10 14 -16 -10z"/>
<path d="M2969 5240 c-3 -19 -3 -60 1 -90 6 -54 6 -54 14 -20 4 19 3 60 -2 90
-8 53 -8 53 -13 20z"/>
<path d="M3001 5144 c0 -11 3 -14 6 -6 3 7 2 16 -1 19 -3 4 -6 -2 -5 -13z"/>
<path d="M3056 5142 c-2 -4 -1 -14 5 -22 7 -12 9 -10 9 8 0 23 -5 28 -14 14z"/>
<path d="M3132 5037 c-7 -8 -7 -18 -2 -27 14 -21 12 -30 -5 -30 -9 0 -15 -9
-15 -25 0 -32 8 -31 48 3 32 27 32 27 16 60 -18 35 -26 39 -42 19z"/>
<path d="M2970 4973 c0 -52 1 -56 16 -42 13 14 14 23 4 58 -6 22 -13 41 -15
41 -3 0 -5 -26 -5 -57z"/>
<path d="M2714 4954 c9 -71 28 -82 24 -15 -2 36 -8 56 -17 59 -11 4 -13 -5 -7
-44z"/>
<path d="M2370 3930 c0 -5 5 -10 11 -10 5 0 7 5 4 10 -3 6 -8 10 -11 10 -2 0
-4 -4 -4 -10z"/>
<path d="M2112 3753 c-7 -3 -17 -14 -23 -26 -9 -21 -9 -21 5 -4 8 10 17 18 20
17 13 -3 30 7 21 12 -6 3 -16 3 -23 1z"/>
<path d="M2160 3733 c-14 -2 -31 -12 -37 -21 -7 -9 -13 -12 -13 -7 0 4 -8 1
-17 -7 -10 -8 -26 -18 -35 -21 -10 -4 -18 -11 -18 -17 0 -6 14 -3 33 7 17 9
35 16 39 15 3 -1 12 5 18 13 16 19 30 19 30 0 0 -21 17 -19 30 4 12 23 13 42
3 40 -5 -1 -19 -4 -33 -6z"/>
<path d="M3540 5730 c0 -11 5 -20 10 -20 6 0 10 9 10 20 0 11 -4 20 -10 20 -5
0 -10 -9 -10 -20z"/>
<path d="M3180 5670 c0 -5 4 -10 9 -10 6 0 13 5 16 10 3 6 -1 10 -9 10 -9 0
-16 -4 -16 -10z"/>
<path d="M3436 5654 c-9 -23 -8 -24 14 -24 10 0 24 9 30 20 9 17 8 20 -14 20
-13 0 -27 -7 -30 -16z"/>
<path d="M4358 4873 c7 -3 16 -2 19 1 4 3 -2 6 -13 5 -11 0 -14 -3 -6 -6z"/>
<path d="M4053 5015 c-3 -9 -3 -18 -1 -21 3 -3 8 4 11 16 6 23 -1 27 -10 5z"/>
<path d="M735 3800 c-3 -5 1 -10 10 -10 9 0 13 5 10 10 -3 6 -8 10 -10 10 -2
0 -7 -4 -10 -10z"/>
<path d="M778 3803 c7 -3 16 -2 19 1 4 3 -2 6 -13 5 -11 0 -14 -3 -6 -6z"/>
<path d="M865 3800 c-3 -5 -1 -10 4 -10 6 0 11 5 11 10 0 6 -2 10 -4 10 -3 0
-8 -4 -11 -10z"/>
<path d="M1650 3719 c0 -5 5 -7 10 -4 6 3 10 8 10 11 0 2 -4 4 -10 4 -5 0 -10
-5 -10 -11z"/>
<path d="M1478 3619 c-19 -11 -25 -69 -8 -69 6 0 10 6 10 13 0 6 7 24 14 40
16 29 12 33 -16 16z"/>
<path d="M1340 3180 c0 -5 5 -10 11 -10 5 0 7 5 4 10 -3 6 -8 10 -11 10 -2 0
-4 -4 -4 -10z"/>
<path d="M1670 3159 c0 -5 5 -7 10 -4 6 3 10 8 10 11 0 2 -4 4 -10 4 -5 0 -10
-5 -10 -11z"/>
<path d="M2136 2935 c8 -19 43 -30 57 -16 8 8 5 11 -10 11 -12 0 -25 5 -28 10
-10 16 -25 12 -19 -5z"/>
<path d="M2055 2930 c-3 -5 -2 -10 4 -10 5 0 13 5 16 10 3 6 2 10 -4 10 -5 0
-13 -4 -16 -10z"/>
<path d="M2520 2796 c0 -2 7 -7 16 -10 8 -3 12 -2 9 4 -6 10 -25 14 -25 6z"/>
<path d="M2456 3415 c4 -8 10 -15 15 -15 4 0 6 7 3 15 -4 8 -10 15 -15 15 -4
0 -6 -7 -3 -15z"/>
<path d="M4176 2941 c-4 -7 -5 -15 -2 -18 9 -9 19 4 14 18 -4 11 -6 11 -12 0z"/>
<path d="M1172 8271 c-16 -53 -15 -91 3 -91 18 0 65 -47 65 -65 0 -8 4 -15 8
-15 5 0 14 -11 20 -25 11 -24 42 -35 42 -15 0 6 7 10 15 10 12 0 15 13 15 55
0 51 -2 56 -31 70 -30 16 -31 21 -12 71 8 22 -28 44 -71 44 -41 0 -43 -2 -54
-39z"/>
<path d="M1722 8293 c1 -10 0 -23 -4 -28 -4 -6 -8 -56 -9 -111 -2 -91 0 -104
20 -132 24 -34 48 -44 35 -14 -4 9 -7 28 -6 42 0 14 -5 31 -10 38 -8 9 -7 20
2 37 15 27 30 31 48 13 9 -9 15 -9 23 -1 8 8 6 15 -10 25 -11 7 -21 21 -21 30
0 10 -6 18 -14 18 -16 0 -27 47 -19 79 4 17 1 21 -16 21 -16 0 -21 -5 -19 -17z"/>
<path d="M1805 8080 c-3 -5 1 -10 10 -10 9 0 13 5 10 10 -3 6 -8 10 -10 10 -2
0 -7 -4 -10 -10z"/>
<path d="M2086 7466 c-7 -27 1 -56 15 -56 5 0 9 14 9 30 0 17 0 33 1 37 2 20
-19 11 -25 -11z"/>
<path d="M2142 7428 c-15 -15 -16 -41 0 -36 6 2 12 14 13 26 2 26 2 25 -13 10z"/>
<path d="M657 7246 c-6 -16 14 -100 32 -134 33 -61 43 18 12 91 -21 50 -36 64
-44 43z"/>
<path d="M1840 7245 c0 -8 7 -15 15 -15 8 0 15 7 15 15 0 8 -7 15 -15 15 -8 0
-15 -7 -15 -15z"/>
<path d="M2320 7136 c0 -31 6 -34 13 -6 3 11 1 23 -4 26 -5 3 -9 -6 -9 -20z"/>
<path d="M2341 6744 c0 -11 3 -14 6 -6 3 7 2 16 -1 19 -3 4 -6 -2 -5 -13z"/>
<path d="M441 4186 c11 -9 100 -15 94 -6 -3 6 -27 10 -52 10 -26 0 -44 -2 -42
-4z"/>
<path d="M195 4158 c-31 -4 -10 -5 53 -3 116 5 361 -10 412 -25 31 -9 50 -7
38 5 -2 3 -56 12 -119 20 -112 15 -286 17 -384 3z"/>
<path d="M18 4153 c-10 -2 -18 -12 -18 -21 0 -14 2 -14 9 -3 6 10 22 12 55 9
30 -4 52 -1 63 8 16 12 11 13 -37 13 -30 -1 -63 -3 -72 -6z"/>
<path d="M447 4121 c13 -13 19 -28 16 -44 -5 -25 0 -27 65 -29 33 -1 33 -2 10
-14 -21 -12 -18 -13 27 -8 28 3 58 7 68 9 9 2 17 -1 17 -6 0 -5 15 -9 33 -9
18 0 37 -4 42 -9 6 -6 18 -4 30 5 19 14 19 15 -3 20 -12 4 -22 10 -22 15 0 13
24 11 38 -3 24 -24 20 -1 -4 27 -14 17 -22 24 -18 16 5 -11 -3 -12 -47 -6 -30
5 -59 8 -66 8 -6 0 -9 6 -7 12 5 12 -104 35 -167 35 l-33 0 21 -19z"/>
<path d="M24 4105 c-1 -14 2 -25 7 -25 5 0 9 10 10 23 0 12 3 16 6 10 2 -7 9
-13 14 -13 4 0 6 7 3 15 -10 25 -39 18 -40 -10z"/>
<path d="M653 4103 c9 -2 23 -2 30 0 6 3 -1 5 -18 5 -16 0 -22 -2 -12 -5z"/>
<path d="M26 4035 c4 -8 12 -15 20 -15 20 0 17 7 -6 20 -16 9 -18 8 -14 -5z"/>
<path d="M6 3992 c-2 -4 4 -9 15 -9 10 -1 19 2 19 8 0 11 -27 12 -34 1z"/>
<path d="M740 3985 c-8 -9 -8 -15 -2 -15 12 0 26 19 19 26 -2 2 -10 -2 -17
-11z"/>
</g>
</svg>
